<?xml version="1.0" encoding="UTF-8" standalone="no"?>
<svg
   xmlns:dc="http://purl.org/dc/elements/1.1/"
   xmlns:cc="http://creativecommons.org/ns#"
   xmlns:rdf="http://www.w3.org/1999/02/22-rdf-syntax-ns#"
   xmlns:svg="http://www.w3.org/2000/svg"
   xmlns="http://www.w3.org/2000/svg"
   xmlns:sodipodi="http://sodipodi.sourceforge.net/DTD/sodipodi-0.dtd"
   xmlns:inkscape="http://www.inkscape.org/namespaces/inkscape"
   version="1.0"
   width="1280pt"
   height="1280pt"
   viewBox="0 0 1280 1280"
   preserveAspectRatio="xMidYMid meet"
   id="svg70"
   sodipodi:docname="feat.svg"
   inkscape:export-filename="C:\Users\pgrogan\Documents\git\feat\images\feat.png"
   inkscape:export-xdpi="6.75"
   inkscape:export-ydpi="6.75"
   inkscape:version="0.92.3 (2405546, 2018-03-11)">
  <metadata
     id="metadata76">
    <rdf:RDF>
      <cc:Work
         rdf:about="">
        <dc:format>image/svg+xml</dc:format>
        <dc:type
           rdf:resource="http://purl.org/dc/dcmitype/StillImage" />
        <dc:title></dc:title>
      </cc:Work>
    </rdf:RDF>
  </metadata>
  <defs
     id="defs74" />
  <sodipodi:namedview
     pagecolor="#ffffff"
     bordercolor="#666666"
     borderopacity="1"
     objecttolerance="10"
     gridtolerance="10"
     guidetolerance="10"
     inkscape:pageopacity="0"
     inkscape:pageshadow="2"
     inkscape:window-width="1920"
     inkscape:window-height="1017"
     id="namedview72"
     showgrid="false"
     inkscape:zoom="0.17567184"
     inkscape:cx="200.54851"
     inkscape:cy="628.45556"
     inkscape:window-x="2552"
     inkscape:window-y="355"
     inkscape:window-maximized="1"
     inkscape:current-layer="g68" />
  <g
     transform="matrix(0.1,0,0,-0.1,0,1280)"
     id="g68"
     style="fill:#000000;stroke:none">
    <path
       d="m 11754.032,11601.243 c -176.587,90.404 -408.884,90.721 -648.478,-0.883 -224.709,-84.081 -374.542,-190.716 -556.958,-392.226 -229.744,-255.574 -326.632,-489.282 -311.821,-753.04 24.485,-458.2587 447.013,-755.1485 903.944,-635.7827 196.667,51.3185 382.952,175.0285 559.742,370.3237 464.479,513.092 490.199,1189.172 53.571,1411.608 z"
       id="path44"
       inkscape:export-xdpi="6.75"
       inkscape:export-ydpi="6.75"
       inkscape:connector-curvature="0"
       style="stroke-width:1.19740677;fill:#ffffff" />
    <path
       d="m 10949.967,6018.3238 c -190.37,94.8059 -420.722,90.1324 -674.23,-11.4879 -194.433,-79.1833 -353.9943,-194.7822 -515.5183,-373.2104 -232.238,-256.5463 -333.061,-496.3845 -319.688,-765.3009 11.561,-249.5086 131.673,-448.6887 343.853,-572.9278 263.7113,-154.7383 591.6183,-117.2379 902.8723,101.6985 88.47,62.0461 311.318,302.8661 370.879,400.775 116.622,194.8458 194.907,427.6289 203.54,612.018 5.147,118.092 -25.633,276.7842 -74.402,371.0017 -43.188,84.3214 -154.74,196.6094 -237.306,237.4338 z"
       id="path46"
       inkscape:export-xdpi="6.75"
       inkscape:export-ydpi="6.75"
       inkscape:connector-curvature="0"
       style="stroke-width:1.19740677;fill:#ffffff" />
    <path
       d="m 10192.772,12226.379 c -192.397,101.486 -456.6697,62.912 -670.8284,-96.941 -256.7028,-190.791 -372.3067,-525.464 -269.3322,-772.122 24.0431,-57.299 40.3582,-78.529 112.2622,-143.62 78.1177,-70.716 90.3778,-78.583 172.0174,-100.804 164.169,-45.244 365.6105,-4.706 541.365,109.154 88.638,58.663 214.803,198.032 264.299,293.746 142.945,279.232 77.365,592.179 -149.783,710.587 z"
       id="path48"
       inkscape:export-xdpi="6.75"
       inkscape:export-ydpi="6.75"
       inkscape:connector-curvature="0"
       style="stroke-width:1.19740677;fill:#ffffff" />
    <path
       d="m 11779.377,4477.6867 c -166.823,81.5643 -397.605,51.4372 -585.33,-77.4297 -76.163,-53.8045 -198.945,-193.0057 -244.675,-279.2062 -220.951,-415.3602 -17.225,-846.9018 390.377,-826.6318 376.272,19.5598 709.643,407.4488 679.43,793.3639 -13.568,170.5689 -108.618,326.0649 -239.802,389.9038 z"
       id="path50"
       inkscape:export-xdpi="6.75"
       inkscape:export-ydpi="6.75"
       inkscape:connector-curvature="0"
       style="stroke-width:1.19740677;fill:#ffffff" />
    <path
       d="m 8871.2304,12463.301 c -258.0594,109.243 -615.3145,-105.2 -716.9213,-431.548 -28.4805,-92.123 -17.1076,-252.628 22.9141,-324.391 91.9198,-160.739 287.0363,-214.616 490.814,-135.816 99.7958,38.873 170.9702,90.734 252.0492,182.084 84.2934,94.899 132.6489,196.489 150.6082,312.676 27.2364,185.315 -46.1255,330.868 -199.4642,396.995 z"
       id="path52"
       inkscape:export-xdpi="6.75"
       inkscape:export-ydpi="6.75"
       inkscape:connector-curvature="0"
       style="stroke-width:1.19740677;fill:#ffffff" />
    <path
       d="m 12147.771,3189.6384 c -34.667,15.2308 -89.378,24.3783 -149.545,23.9295 -156.74,-1.8604 -289.987,-66.9811 -412.134,-201.9119 -157.504,-173.9899 -208.382,-378.2825 -138.579,-554.5322 29.07,-73.1552 39.002,-85.3774 95.479,-130.0424 106.74,-83.7046 238.95,-100.0186 383.907,-48.7275 184.155,64.2613 360.945,259.556 407.506,448.3745 49.102,205.8996 -24.419,388.7463 -186.634,462.91 z"
       id="path54"
       inkscape:export-xdpi="6.75"
       inkscape:export-ydpi="6.75"
       inkscape:connector-curvature="0"
       style="stroke-width:1.19740677;fill:#ffffff" />
    <path
       d="m 7678.3876,12515.883 c -110.6823,43.665 -237.4082,17.866 -354.0885,-73.559 -127.2954,-99.582 -205.6454,-262.853 -202.8132,-422.089 2.0846,-110.102 25.9968,-181.818 85.9776,-245.807 163.1602,-178.389 477.1337,-65.286 599.6997,214.631 97.4773,221.869 39.0653,458.875 -128.7756,526.824 z"
       id="path56"
       inkscape:export-xdpi="6.75"
       inkscape:export-ydpi="6.75"
       inkscape:connector-curvature="0"
       style="stroke-width:1.19740677;fill:#ffffff" />
    <path
       d="m 12376.86,1958.2434 c -166.859,99.3651 -417.311,38.5888 -579.638,-140.7272 -106.073,-117.177 -147.001,-265.8714 -105.512,-384.1872 17.661,-48.2907 30.341,-64.615 86.818,-109.2799 36.228,-29.5648 83.406,-57.7373 104.039,-63.4931 119.353,-30.5175 292.127,6.8978 411.808,89.1462 121.286,84.0237 210.288,237.6521 214.764,369.2746 3.278,87.4803 -55.338,192.2284 -132.279,239.2666 z"
       id="path58"
       inkscape:export-xdpi="6.75"
       inkscape:export-ydpi="6.75"
       inkscape:connector-curvature="0"
       style="stroke-width:1.19740677;fill:#ffffff" />
    <path
       d="m 9553.7147,10467.75 c -574.6611,441.071 -1400.3067,729.782 -2348.4535,822.508 -436.1686,42.738 -882.8772,41.717 -1139.2442,-2.399 -440.513,-74.467 -782.9114,-229.676 -1124.4119,-505.22 C 4796.5465,10665.219 4523.3242,10363.4 4404,10188.765 4137.7303,9798.2789 3949.0919,9415.0438 3490.2522,8328.3115 3202.6796,7650.2295 3086.8412,7388.4512 2951.4643,7110.4418 2639.802,6473.5489 2114.9256,5572.5782 1711.9048,4982.8542 1375.2927,4489.6841 1181.1966,4250.294 947.57437,4038.6092 779.54796,3888.6805 571.58502,3655.3826 498.61695,3537.3088 79.038849,2854.3577 58.982178,2013.2492 447.45273,1327.2476 765.34581,764.89728 1283.8012,431.23798 1946.8472,360.787 c 154.282,-16.91205 509.2024,5.82466 671.025,41.84757 148.3763,33.65874 375.8321,113.63713 515.677,182.47664 101.786,49.99209 287.4357,169.43078 395.1924,252.78178 109.3639,85.12628 360.5527,369.74271 440.6691,497.49701 260.6536,418.1824 374.2292,912.9769 374.5051,1623.3974 0.448,93.2737 -4.5996,348.1928 -11.2634,567.4262 -24.0853,842.3043 -2.9607,1252.8136 86.0308,1679.4141 141.2332,671.6522 497.8602,1222.6161 976.3559,1504.9728 131.7715,77.7632 368.0668,167.5063 519.1903,197.063 268.6733,52.3572 543.3366,52.4524 1104.6989,-1.8619 436.9721,-41.8498 796.2469,-21.4399 1223.3603,66.772 1059.6862,221.3988 1842.0064,769.7958 2096.3514,1468.2667 254.261,700.1627 -37.535,1453.7041 -784.9253,2026.9097 z"
       id="path60"
       inkscape:export-xdpi="6.75"
       inkscape:export-ydpi="6.75"
       inkscape:connector-curvature="0"
       style="stroke-width:1.19740677;fill:#ffffff" />
    <path
       d="m 9888.6577,3852.1275 c -262.516,198.8802 -569.447,336.2099 -851.371,379.8362 -550.317,87.9254 -1082.1126,-128.415 -1468.315,-596.0758 -417.2897,-507.355 -656.6741,-1233.905 -690.0554,-2096.8696 -10.688,-279.4382 13.7583,-566.45431 78.1511,-889.63222 100.7055,-507.87512 128.3379,-739.629673 119.3128,-967.27299 -16.2565,-389.07374 -120.2648,-684.17339 -349.261,-988.87969 -341.9294,-454.4384 -912.1008,-768.4817 -1659.3458,-914.1531 -338.3996,-65.1499 -571.0419,-91.9785 -1207.9886,-137.2179 -210.3564,-14.6997 -461.1358,-34.8005 -557.2876,-44.6687 -716.148,-72.0669 -1193.0465,-233.1171 -1585.7999,-534.9465 -119.9789,-93.2839 -378.2693,-371.4715 -450.4338,-488.6575 -81.0041,-126.9508 -162.9049,-287.008 -206.4014,-401.0728 -249.21505,-648.1992 -182.81975,-1386.6703 171.1044,-1923.4922 207.1814,-313.5338 474.2587,-535.9239 827.059,-692.166 773.1595,-341.3385 1681.4141,-194.4419 2311.0598,372.6427 96.5531,87.0324 144.6006,143.6773 440.9306,526.3333 103.5422,134.0057 152.7297,184.773 416.4213,422.5377 529.7101,479.8839 1194.5183,987.6797 1983.8098,1515.2298 401.2009,268.3398 654.9321,416.5965 1512.4087,885.6525 1036.65,565.2836 1400.0833,791.9013 1759.7293,1094.6274 162.737,136.9495 435.96,438.7689 538.492,593.0702 408.993,623.08279 487.377,1228.87684 289.899,2250.7568 -229.481,1188.1408 -726.299,2109.5127 -1422.1183,2634.4184 z"
       id="path62"
       inkscape:export-xdpi="6.75"
       inkscape:export-ydpi="6.75"
       inkscape:connector-curvature="0"
       style="stroke-width:1.19740677;fill:#ffffff" />
    <path
       d="m 6660.7861,12505.122 c -56.4392,26.864 -172.8864,15.987 -251.4989,-22.68 -100.8983,-50.796 -222.9606,-187.418 -271.363,-305.118 -131.5829,-320.208 44.9211,-562.361 327.5637,-449.968 58.9898,24.127 82.7144,41.414 155.2906,116.234 126.6691,129.222 185.4338,260.153 182.2184,410.043 -1.3649,112.682 -58.0381,212.44 -142.2108,251.489 z"
       id="path64"
       inkscape:export-xdpi="6.75"
       inkscape:export-ydpi="6.75"
       inkscape:connector-curvature="0"
       style="stroke-width:1.19740677;fill:#ffffff" />
    <path
       d="m 12470.029,937.11033 c -53.777,24.45345 -106.795,33.6852 -170.092,27.99417 -86.977,-6.86856 -142.835,-25.75346 -233.334,-81.11843 -64.998,-39.68517 -91.854,-62.21426 -156.608,-140.88343 -94.404,-113.20567 -124.529,-189.30495 -115.129,-293.10961 19.224,-216.06565 249.978,-287.66875 494.235,-153.44728 204.675,111.90762 333.099,325.143 295.217,490.26394 -14.063,61.18568 -65.756,128.97758 -114.289,150.30064 z"
       id="path66"
       inkscape:export-xdpi="6.75"
       inkscape:export-ydpi="6.75"
       inkscape:connector-curvature="0"
       style="stroke-width:1.19740677;fill:#ffffff" />
  </g>
</svg>
